<svg id="be52d4a0-d7df-45d7-a4d1-9b9d295e8f0e" xmlns="http://www.w3.org/2000/svg" viewBox="0 0 825.15 661.12"><defs><style>.cls-1{fill:#3f3d56;}.cls-2{fill:#f2f2f2;}.cls-3{fill:#bbb5ff;}.cls-4{fill:none;stroke:#3f3d56;stroke-miterlimit:10;stroke-width:2px;}.cls-5{fill:#fbbebe;}.cls-6{fill:#2f2e41;}.cls-7{opacity:0.1;isolation:isolate;}.cls-8{fill:#9187ff;}</style></defs><title>img-slider</title><ellipse class="cls-1" cx="614.85" cy="645.12" rx="191" ry="16"/><path class="cls-2" d="M804.91,466.18c0,78.41-46.61,105.78-104.1,105.78S596.7,544.59,596.7,466.18,700.81,288,700.81,288,804.91,387.78,804.91,466.18Z" transform="translate(-0.06 -0.05)"/><polygon class="cls-1" points="696.95 559.92 698.02 494.3 742.39 413.13 698.19 484.01 698.67 454.51 729.25 395.77 698.79 446.7 698.79 446.7 699.65 393.63 732.4 346.87 699.79 385.29 700.33 287.99 696.94 416.8 697.22 411.48 663.93 360.52 696.69 421.68 693.59 480.95 693.49 479.38 655.11 425.74 693.38 484.93 692.99 492.34 692.92 492.46 692.95 493.06 685.08 643.42 695.6 643.42 696.86 565.76 735.03 506.72 696.95 559.92"/><path class="cls-3" d="M772.39,607.27c0,22.47-13.36,30.32-29.84,30.32h-1.14c-.76,0-1.52-.06-2.27-.11-14.87-1.05-26.42-9.3-26.42-30.2,0-21.62,27.63-48.91,29.71-50.93h0l.12-.12S772.39,584.81,772.39,607.27Z" transform="translate(-0.06 -0.05)"/><path class="cls-1" d="M741.47,634.15l10.91-15.25-10.94,16.92,0,1.76c-.76,0-1.52-.06-2.27-.11L740.32,615v-.17l0,0,.11-2.13-11-17,11,15.37,0,.45.89-17L732,577l9.5,14.54.93-35.21v0l-.15,27.77,9.35-11-9.39,13.4L742,601.7l8.73-14.59L742,603.94l-.14,8.46,12.67-20.32-12.72,23.27Z" transform="translate(-0.06 -0.05)"/><circle class="cls-2" cx="225.15" cy="209.16" r="47.9"/><circle class="cls-4" cx="235.06" cy="194.84" r="47.9"/><path class="cls-1" d="M168.49,119.46,129.93,54.85a30.79,30.79,0,1,0-12.67,9.51Z" transform="translate(-0.06 -0.05)"/><circle class="cls-3" cx="105.66" cy="35.71" r="14.32"/><path class="cls-1" d="M292.19,112l53.36-53a30.78,30.78,0,1,0-12.29-10Z" transform="translate(-0.06 -0.05)"/><circle class="cls-3" cx="358.16" cy="30.79" r="14.32"/><path class="cls-1" d="M329.36,230.22l64.38,38.93a30.79,30.79,0,1,0,6.72-14.34Z" transform="translate(-0.06 -0.05)"/><circle class="cls-3" cx="424.01" cy="274.6" r="14.32"/><path class="cls-1" d="M223.64,294.88l-22.2,71.88A30.82,30.82,0,1,0,217,369.82Z" transform="translate(-0.06 -0.05)"/><circle class="cls-3" cx="203.39" cy="397.48" r="14.32"/><path class="cls-1" d="M135.32,207.94,60.2,203.79A30.79,30.79,0,1,0,61,219.6Z" transform="translate(-0.06 -0.05)"/><circle class="cls-3" cx="30.78" cy="213.13" r="14.32"/><circle class="cls-2" cx="810.4" cy="48.47" r="14.76"/><circle class="cls-4" cx="804.4" cy="43.47" r="14.76"/><rect class="cls-3" x="683.85" y="51.78" width="33.33" height="33.33"/><rect class="cls-4" x="690.52" y="45.12" width="33.33" height="33.33"/><path class="cls-5" d="M607.41,586.66s-3,19-8,22,26,10,26,10l5-30Z" transform="translate(-0.06 -0.05)"/><path class="cls-6" d="M644.41,369.66l11,13-5,45-4,89s8,77,0,79-44,1-43-4,2-9,4-16-2-32-2-32l5-28-18-121Z" transform="translate(-0.06 -0.05)"/><path class="cls-6" d="M608.41,605.66s-11-2-12,0-20,23-23,23-25,20-2,21,61-17,61-17-5.59-25.44-5.29-24.22S608.41,610.66,608.41,605.66Z" transform="translate(-0.06 -0.05)"/><path class="cls-5" d="M596.41,559.66s28,31,29,34,16,0,16,0l6-20-5-7-28-23Z" transform="translate(-0.06 -0.05)"/><path class="cls-6" d="M636.41,582.66l-14.5,13.65s18.5,28.35,18.5,31.35,1,28,11,24,11-44,11-44-1-41-7-44-19.15-2-19.15-2S644.41,581.66,636.41,582.66Z" transform="translate(-0.06 -0.05)"/><path class="cls-6" d="M553.41,280.66s-5,16-6,20-7,15-7,32,2,37,0,39-34,114-20,126,60,52,63,57,4,17,10,15,29-22,30-26-13-11-13-11-28-41-35-40-6-5-5-8,3-5,0-5-1-8,0-12,24-58,24-58l61-27s-3-73-25-93l-5-12S569.41,273.66,553.41,280.66Z" transform="translate(-0.06 -0.05)"/><path class="cls-5" d="M578.41,122.66s5,35-7,37-22,1-22,2,30,32,30,32l28-2,25-27s-23-4-23-18-1-24-1-24Z" transform="translate(-0.06 -0.05)"/><path class="cls-7" d="M578.41,122.66s5,35-7,37-22,1-22,2,30,32,30,32l28-2,25-27s-23-4-23-18-1-24-1-24Z" transform="translate(-0.06 -0.05)"/><circle class="cls-5" cx="593.85" cy="106.12" r="31"/><path class="cls-1" d="M566.41,156.66s-39,5-42,18,20,94,23,101,2,12,2,12a39.6,39.6,0,0,1,32-7c19,4,46,2,46,2s9-37,11-41,10-26,10-32,12-31,12-31-6-18-28-17c0,0-9.59-4.29-12.29-1.14s-17.71,17.14-36.71,11.14S566.41,156.66,566.41,156.66Z" transform="translate(-0.06 -0.05)"/><path class="cls-1" d="M535.41,173.66h-11l-6,79s22,6,25,2S535.41,173.66,535.41,173.66Z" transform="translate(-0.06 -0.05)"/><path class="cls-1" d="M521.41,244.66l-3,8s-2,26,10,25,19-16,19-16-7-19-15-17S521.41,244.66,521.41,244.66Z" transform="translate(-0.06 -0.05)"/><path class="cls-1" d="M641.41,173.66l19,5s14,51,15,52,2,7,2,7,0,1,2,4,5,1,3,5-5,2-3,6,1,15,1,15-5-19-23-14l-12-54Z" transform="translate(-0.06 -0.05)"/><path class="cls-8" d="M558.6,80.62c-6.3,11.08-7.72,24.2-8.59,36.91-.37,5.45-.65,11.05,1,16.27,1.71,5.51,5.5,11.1,3.56,16.52-1.88,5.25-8.18,7.35-11.69,11.68-3,3.66-3.73,8.69-3.47,13.4s1.4,9.35,1.74,14.06a41.71,41.71,0,0,1-9,28.71c15.06-.58,31.16-7.26,37.52-20.93,1.89-4.09,2.82-8.56,4.53-12.73,1.94-4.71,4.87-9,6.7-13.74,2.77-7.17,2.92-15.05,3-22.74.06-4.6.11-9.33-1.48-13.65-3.51-9.51-14.41-15.65-15.5-25.73a5.12,5.12,0,0,1,.46-3.13,8.19,8.19,0,0,1,1.82-1.85c6.81-6,5.69-18.74,13.8-22.83,3.63-1.84,8-1.2,11.93,0,4.33,1.29,8.66,3.29,11.48,6.83,5.69,7.13,3.44,17.42,1.69,26.36a157,157,0,0,0-2.69,39.41,25.87,25.87,0,0,0,.92,6.25c1,3.3,3.27,6.07,5,9.1a30,30,0,0,1,3.14,20.42c-1.24,6-4.32,12.51-1.61,18.07a16.39,16.39,0,0,0,4.87,5.41c8.86,6.94,20.11,11.25,26.7,20.38,1.13-7.46-1-15-2.63-22.34s-2.57-15.4.71-22.19c1.44-3,3.65-5.57,4.82-8.66,2.72-7.15-.52-15-2.49-22.37a134.63,134.63,0,0,1-3-17.62l-2-16c-1.68-13.25-3.43-26.76-9.25-38.78-11-22.65-35.76-31.06-58-18.51A37.65,37.65,0,0,0,558.6,80.62Z" transform="translate(-0.06 -0.05)"/><path class="cls-5" d="M531.41,249.66s-6,18,1,18,20-11,21-20,19-43,6-40-19,28-19,28Z" transform="translate(-0.06 -0.05)"/><polygon class="cls-3" points="632.35 173.62 599.35 280.62 644.35 290.62 677.35 186.62 632.35 173.62"/><path class="cls-5" d="M674.41,250.66l6.25,10.44s2.75,19.56-11.25,19.56-34-19-34-19-10-4-16-3-39,0-25-17,38,0,38,0l25,12,13-7Z" transform="translate(-0.06 -0.05)"/><path class="cls-1" d="M665.91,237.16l-10,16s23,3,25,8-9-26-9-26Z" transform="translate(-0.06 -0.05)"/></svg>